<?xml version="1.0" encoding="UTF-8" standalone="no"?>
<!DOCTYPE svg PUBLIC "-//W3C//DTD SVG 1.1//EN"
 "http://www.w3.org/Graphics/SVG/1.1/DTD/svg11.dtd">
<!-- Generated by graphviz version 2.47.0 (20210316.0004)
 -->
<!-- Title: dependencies Pages: 1 -->
<svg width="504pt" height="211pt"
 viewBox="0.00 0.00 504.00 211.00" xmlns="http://www.w3.org/2000/svg" xmlns:xlink="http://www.w3.org/1999/xlink">
<g id="graph0" class="graph" transform="scale(1 1) rotate(0) translate(4 207)">
<title>dependencies</title>
<polygon fill="white" stroke="transparent" points="-4,4 -4,-207 500,-207 500,4 -4,4"/>
<text text-anchor="start" x="227.01" y="-42.4" font-family="Times-12" font-weight="bold" font-size="14.00">Legend</text>
<polygon fill="#ffffb3" stroke="transparent" points="14,-10 14,-30 34,-30 34,-10 14,-10"/>
<text text-anchor="start" x="37.63" y="-15.4" font-family="Times-12" font-size="14.00"> &#160;Declarations</text>
<polygon fill="#8dd3c7" stroke="transparent" points="127,-10 127,-30 147,-30 147,-10 127,-10"/>
<text text-anchor="start" x="150.73" y="-15.4" font-family="Times-12" font-size="14.00"> &#160;Module</text>
<polygon fill="#80b1d3" stroke="transparent" points="213,-10 213,-30 233,-30 233,-10 213,-10"/>
<text text-anchor="start" x="236.78" y="-15.4" font-family="Times-12" font-size="14.00"> &#160;Bootstrap</text>
<polygon fill="#fdb462" stroke="transparent" points="310,-10 310,-30 330,-30 330,-10 310,-10"/>
<text text-anchor="start" x="333.67" y="-15.4" font-family="Times-12" font-size="14.00"> &#160;Providers</text>
<polygon fill="#fb8072" stroke="transparent" points="406,-10 406,-30 426,-30 426,-10 406,-10"/>
<text text-anchor="start" x="429.73" y="-15.4" font-family="Times-12" font-size="14.00"> &#160;Exports</text>
<g id="clust1" class="cluster">
<title>cluster_UserPageModule</title>
<polygon fill="none" stroke="black" stroke-dasharray="1,5" points="48,-70 48,-195 448,-195 448,-70 48,-70"/>
</g>
<g id="clust4" class="cluster">
<title>cluster_UserPageModule_imports</title>
<polygon fill="none" stroke="black" points="150,-78 150,-130 440,-130 440,-78 150,-78"/>
</g>
<g id="clust2" class="cluster">
<title>cluster_UserPageModule_declarations</title>
<polygon fill="none" stroke="black" points="56,-78 56,-130 142,-130 142,-78 56,-78"/>
</g>
<!-- UserPage -->
<g id="node1" class="node">
<title>UserPage</title>
<polygon fill="#ffffb3" stroke="black" points="133.64,-122 64.36,-122 64.36,-86 133.64,-86 133.64,-122"/>
<text text-anchor="middle" x="99" y="-99.8" font-family="Times,serif" font-size="14.00">UserPage</text>
</g>
<!-- UserPageModule -->
<g id="node2" class="node">
<title>UserPageModule</title>
<polygon fill="#8dd3c7" stroke="black" points="293.69,-187 290.69,-191 269.69,-191 266.69,-187 180.31,-187 180.31,-151 293.69,-151 293.69,-187"/>
<text text-anchor="middle" x="237" y="-164.8" font-family="Times,serif" font-size="14.00">UserPageModule</text>
</g>
<!-- UserPage&#45;&gt;UserPageModule -->
<g id="edge1" class="edge">
<title>UserPage&#45;&gt;UserPageModule</title>
<path fill="none" stroke="black" d="M99,-122.11C99,-141.34 99,-169 99,-169 99,-169 170.07,-169 170.07,-169"/>
<polygon fill="black" stroke="black" points="170.07,-172.5 180.07,-169 170.07,-165.5 170.07,-172.5"/>
</g>
<!-- SharedModule -->
<g id="node3" class="node">
<title>SharedModule</title>
<polygon fill="#8dd3c7" stroke="black" points="432.42,-122 429.42,-126 408.42,-126 405.42,-122 333.58,-122 333.58,-86 432.42,-86 432.42,-122"/>
<text text-anchor="middle" x="383" y="-99.8" font-family="Times,serif" font-size="14.00">SharedModule</text>
</g>
<!-- SharedModule&#45;&gt;UserPageModule -->
<g id="edge2" class="edge">
<title>SharedModule&#45;&gt;UserPageModule</title>
<path fill="none" stroke="black" d="M383,-122.11C383,-141.34 383,-169 383,-169 383,-169 303.87,-169 303.87,-169"/>
<polygon fill="black" stroke="black" points="303.87,-165.5 293.87,-169 303.87,-172.5 303.87,-165.5"/>
</g>
<!-- UserPageRoutingModule -->
<g id="node4" class="node">
<title>UserPageRoutingModule</title>
<polygon fill="#8dd3c7" stroke="black" points="316.31,-122 313.31,-126 292.31,-126 289.31,-122 157.69,-122 157.69,-86 316.31,-86 316.31,-122"/>
<text text-anchor="middle" x="237" y="-99.8" font-family="Times,serif" font-size="14.00">UserPageRoutingModule</text>
</g>
<!-- UserPageRoutingModule&#45;&gt;UserPageModule -->
<g id="edge3" class="edge">
<title>UserPageRoutingModule&#45;&gt;UserPageModule</title>
<path fill="none" stroke="black" d="M237,-122.11C237,-122.11 237,-140.99 237,-140.99"/>
<polygon fill="black" stroke="black" points="233.5,-140.99 237,-150.99 240.5,-140.99 233.5,-140.99"/>
</g>
</g>
</svg>
