<?xml version="1.0" encoding="UTF-8" standalone="no"?>
<!DOCTYPE svg PUBLIC "-//W3C//DTD SVG 1.1//EN"
 "http://www.w3.org/Graphics/SVG/1.1/DTD/svg11.dtd">
<!-- Generated by graphviz version 2.47.0 (20210316.0004)
 -->
<!-- Title: dependencies Pages: 1 -->
<svg width="3099pt" height="284pt"
 viewBox="0.00 0.00 3099.00 284.00" xmlns="http://www.w3.org/2000/svg" xmlns:xlink="http://www.w3.org/1999/xlink">
<g id="graph0" class="graph" transform="scale(1 1) rotate(0) translate(4 280)">
<title>dependencies</title>
<polygon fill="white" stroke="transparent" points="-4,4 -4,-280 3095,-280 3095,4 -4,4"/>
<text text-anchor="start" x="1524.51" y="-42.4" font-family="Times-12" font-weight="bold" font-size="14.00">Legend</text>
<polygon fill="#ffffb3" stroke="transparent" points="1311.5,-10 1311.5,-30 1331.5,-30 1331.5,-10 1311.5,-10"/>
<text text-anchor="start" x="1335.13" y="-15.4" font-family="Times-12" font-size="14.00"> &#160;Declarations</text>
<polygon fill="#8dd3c7" stroke="transparent" points="1424.5,-10 1424.5,-30 1444.5,-30 1444.5,-10 1424.5,-10"/>
<text text-anchor="start" x="1448.23" y="-15.4" font-family="Times-12" font-size="14.00"> &#160;Module</text>
<polygon fill="#80b1d3" stroke="transparent" points="1510.5,-10 1510.5,-30 1530.5,-30 1530.5,-10 1510.5,-10"/>
<text text-anchor="start" x="1534.28" y="-15.4" font-family="Times-12" font-size="14.00"> &#160;Bootstrap</text>
<polygon fill="#fdb462" stroke="transparent" points="1607.5,-10 1607.5,-30 1627.5,-30 1627.5,-10 1607.5,-10"/>
<text text-anchor="start" x="1631.17" y="-15.4" font-family="Times-12" font-size="14.00"> &#160;Providers</text>
<polygon fill="#fb8072" stroke="transparent" points="1703.5,-10 1703.5,-30 1723.5,-30 1723.5,-10 1703.5,-10"/>
<text text-anchor="start" x="1727.23" y="-15.4" font-family="Times-12" font-size="14.00"> &#160;Exports</text>
<g id="clust1" class="cluster">
<title>cluster_SharedModule</title>
<polygon fill="none" stroke="black" stroke-dasharray="1,5" points="8,-70 8,-268 3083,-268 3083,-70 8,-70"/>
</g>
<g id="clust23" class="cluster">
<title>cluster_SharedModule_exports</title>
<polygon fill="none" stroke="black" points="16,-208 16,-260 3075,-260 3075,-208 16,-208"/>
</g>
<g id="clust2" class="cluster">
<title>cluster_SharedModule_declarations</title>
<polygon fill="none" stroke="black" points="50,-78 50,-130 3040,-130 3040,-78 50,-78"/>
</g>
<!-- HeaderComponent -->
<g id="node1" class="node">
<title>HeaderComponent</title>
<polygon fill="#ffffb3" stroke="black" points="3031.74,-122 2910.26,-122 2910.26,-86 3031.74,-86 3031.74,-122"/>
<text text-anchor="middle" x="2971" y="-99.8" font-family="Times,serif" font-size="14.00">HeaderComponent</text>
</g>
<!-- SharedModule -->
<g id="node20" class="node">
<title>SharedModule</title>
<polygon fill="#8dd3c7" stroke="black" points="1610.42,-187 1607.42,-191 1586.42,-191 1583.42,-187 1511.58,-187 1511.58,-151 1610.42,-151 1610.42,-187"/>
<text text-anchor="middle" x="1561" y="-164.8" font-family="Times,serif" font-size="14.00">SharedModule</text>
</g>
<!-- HeaderComponent&#45;&gt;SharedModule -->
<g id="edge1" class="edge">
<title>HeaderComponent&#45;&gt;SharedModule</title>
<path fill="none" stroke="black" d="M2916.88,-122.11C2916.88,-141.34 2916.88,-169 2916.88,-169 2916.88,-169 1620.46,-169 1620.46,-169"/>
<polygon fill="black" stroke="black" points="1620.46,-165.5 1610.46,-169 1620.46,-172.5 1620.46,-165.5"/>
</g>
<!-- HighlightDirective -->
<g id="node2" class="node">
<title>HighlightDirective</title>
<polygon fill="#ffffb3" stroke="black" points="2891.75,-122 2770.25,-122 2770.25,-86 2891.75,-86 2891.75,-122"/>
<text text-anchor="middle" x="2831" y="-99.8" font-family="Times,serif" font-size="14.00">HighlightDirective</text>
</g>
<!-- HighlightDirective&#45;&gt;SharedModule -->
<g id="edge2" class="edge">
<title>HighlightDirective&#45;&gt;SharedModule</title>
<path fill="none" stroke="black" d="M2775.21,-122.22C2775.21,-140.83 2775.21,-167 2775.21,-167 2775.21,-167 1620.48,-167 1620.48,-167"/>
<polygon fill="black" stroke="black" points="1620.48,-163.5 1610.48,-167 1620.48,-170.5 1620.48,-163.5"/>
</g>
<!-- LoginFormComponent -->
<g id="node3" class="node">
<title>LoginFormComponent</title>
<polygon fill="#ffffb3" stroke="black" points="2752.61,-122 2607.39,-122 2607.39,-86 2752.61,-86 2752.61,-122"/>
<text text-anchor="middle" x="2680" y="-99.8" font-family="Times,serif" font-size="14.00">LoginFormComponent</text>
</g>
<!-- LoginFormComponent&#45;&gt;SharedModule -->
<g id="edge3" class="edge">
<title>LoginFormComponent&#45;&gt;SharedModule</title>
<path fill="none" stroke="black" d="M2622.5,-122.3C2622.5,-140.27 2622.5,-165 2622.5,-165 2622.5,-165 1620.42,-165 1620.42,-165"/>
<polygon fill="black" stroke="black" points="1620.42,-161.5 1610.42,-165 1620.42,-168.5 1620.42,-161.5"/>
</g>
<!-- MatchComponent -->
<g id="node4" class="node">
<title>MatchComponent</title>
<polygon fill="#ffffb3" stroke="black" points="2589.6,-122 2472.4,-122 2472.4,-86 2589.6,-86 2589.6,-122"/>
<text text-anchor="middle" x="2531" y="-99.8" font-family="Times,serif" font-size="14.00">MatchComponent</text>
</g>
<!-- MatchComponent&#45;&gt;SharedModule -->
<g id="edge4" class="edge">
<title>MatchComponent&#45;&gt;SharedModule</title>
<path fill="none" stroke="black" d="M2483.58,-122.02C2483.58,-139.37 2483.58,-163 2483.58,-163 2483.58,-163 1620.28,-163 1620.28,-163"/>
<polygon fill="black" stroke="black" points="1620.28,-159.5 1610.28,-163 1620.28,-166.5 1620.28,-159.5"/>
</g>
<!-- MatchFormComponent -->
<g id="node5" class="node">
<title>MatchFormComponent</title>
<polygon fill="#ffffb3" stroke="black" points="2454.93,-122 2307.07,-122 2307.07,-86 2454.93,-86 2454.93,-122"/>
<text text-anchor="middle" x="2381" y="-99.8" font-family="Times,serif" font-size="14.00">MatchFormComponent</text>
</g>
<!-- MatchFormComponent&#45;&gt;SharedModule -->
<g id="edge5" class="edge">
<title>MatchFormComponent&#45;&gt;SharedModule</title>
<path fill="none" stroke="black" d="M2315.41,-122.04C2315.41,-138.73 2315.41,-161 2315.41,-161 2315.41,-161 1620.5,-161 1620.5,-161"/>
<polygon fill="black" stroke="black" points="1620.5,-157.5 1610.5,-161 1620.5,-164.5 1620.5,-157.5"/>
</g>
<!-- MatchItemComponent -->
<g id="node6" class="node">
<title>MatchItemComponent</title>
<polygon fill="#ffffb3" stroke="black" points="2289.25,-122 2146.75,-122 2146.75,-86 2289.25,-86 2289.25,-122"/>
<text text-anchor="middle" x="2218" y="-99.8" font-family="Times,serif" font-size="14.00">MatchItemComponent</text>
</g>
<!-- MatchItemComponent&#45;&gt;SharedModule -->
<g id="edge6" class="edge">
<title>MatchItemComponent&#45;&gt;SharedModule</title>
<path fill="none" stroke="black" d="M2152.75,-122.01C2152.75,-138.05 2152.75,-159 2152.75,-159 2152.75,-159 1620.43,-159 1620.43,-159"/>
<polygon fill="black" stroke="black" points="1620.43,-155.5 1610.43,-159 1620.43,-162.5 1620.43,-155.5"/>
</g>
<!-- PictureSelectableComponent -->
<g id="node7" class="node">
<title>PictureSelectableComponent</title>
<polygon fill="#ffffb3" stroke="black" points="2128.01,-122 1949.99,-122 1949.99,-86 2128.01,-86 2128.01,-122"/>
<text text-anchor="middle" x="2039" y="-99.8" font-family="Times,serif" font-size="14.00">PictureSelectableComponent</text>
</g>
<!-- PictureSelectableComponent&#45;&gt;SharedModule -->
<g id="edge7" class="edge">
<title>PictureSelectableComponent&#45;&gt;SharedModule</title>
<path fill="none" stroke="black" d="M1954.37,-122.24C1954.37,-137.57 1954.37,-157 1954.37,-157 1954.37,-157 1620.42,-157 1620.42,-157"/>
<polygon fill="black" stroke="black" points="1620.42,-153.5 1610.42,-157 1620.42,-160.5 1620.42,-153.5"/>
</g>
<!-- PlayerCardComponent -->
<g id="node8" class="node">
<title>PlayerCardComponent</title>
<polygon fill="#ffffb3" stroke="black" points="1932.31,-122 1787.69,-122 1787.69,-86 1932.31,-86 1932.31,-122"/>
<text text-anchor="middle" x="1860" y="-99.8" font-family="Times,serif" font-size="14.00">PlayerCardComponent</text>
</g>
<!-- PlayerCardComponent&#45;&gt;SharedModule -->
<g id="edge8" class="edge">
<title>PlayerCardComponent&#45;&gt;SharedModule</title>
<path fill="none" stroke="black" d="M1885.8,-122.12C1885.8,-136.78 1885.8,-155 1885.8,-155 1885.8,-155 1620.33,-155 1620.33,-155"/>
<polygon fill="black" stroke="black" points="1620.33,-151.5 1610.33,-155 1620.33,-158.5 1620.33,-151.5"/>
</g>
<!-- PlayerComponent -->
<g id="node9" class="node">
<title>PlayerComponent</title>
<polygon fill="#ffffb3" stroke="black" points="1769.6,-122 1652.4,-122 1652.4,-86 1769.6,-86 1769.6,-122"/>
<text text-anchor="middle" x="1711" y="-99.8" font-family="Times,serif" font-size="14.00">PlayerComponent</text>
</g>
<!-- PlayerComponent&#45;&gt;SharedModule -->
<g id="edge9" class="edge">
<title>PlayerComponent&#45;&gt;SharedModule</title>
<path fill="none" stroke="black" d="M1731.27,-122.25C1731.27,-136.18 1731.27,-153 1731.27,-153 1731.27,-153 1620.25,-153 1620.25,-153"/>
<polygon fill="black" stroke="black" points="1620.25,-149.5 1610.25,-153 1620.25,-156.5 1620.25,-149.5"/>
</g>
<!-- PlayerFormComponent -->
<g id="node10" class="node">
<title>PlayerFormComponent</title>
<polygon fill="#ffffb3" stroke="black" points="1634.93,-122 1487.07,-122 1487.07,-86 1634.93,-86 1634.93,-122"/>
<text text-anchor="middle" x="1561" y="-99.8" font-family="Times,serif" font-size="14.00">PlayerFormComponent</text>
</g>
<!-- PlayerFormComponent&#45;&gt;SharedModule -->
<g id="edge10" class="edge">
<title>PlayerFormComponent&#45;&gt;SharedModule</title>
<path fill="none" stroke="black" d="M1561,-122.11C1561,-122.11 1561,-140.99 1561,-140.99"/>
<polygon fill="black" stroke="black" points="1557.5,-140.99 1561,-150.99 1564.5,-140.99 1557.5,-140.99"/>
</g>
<!-- PlayerInfoComponent -->
<g id="node11" class="node">
<title>PlayerInfoComponent</title>
<polygon fill="#ffffb3" stroke="black" points="1469.42,-122 1328.58,-122 1328.58,-86 1469.42,-86 1469.42,-122"/>
<text text-anchor="middle" x="1399" y="-99.8" font-family="Times,serif" font-size="14.00">PlayerInfoComponent</text>
</g>
<!-- PlayerInfoComponent&#45;&gt;SharedModule -->
<g id="edge11" class="edge">
<title>PlayerInfoComponent&#45;&gt;SharedModule</title>
<path fill="none" stroke="black" d="M1421.57,-122.25C1421.57,-136.18 1421.57,-153 1421.57,-153 1421.57,-153 1501.45,-153 1501.45,-153"/>
<polygon fill="black" stroke="black" points="1501.45,-156.5 1511.45,-153 1501.45,-149.5 1501.45,-156.5"/>
</g>
<!-- PlayerItemComponent -->
<g id="node12" class="node">
<title>PlayerItemComponent</title>
<polygon fill="#ffffb3" stroke="black" points="1310.25,-122 1167.75,-122 1167.75,-86 1310.25,-86 1310.25,-122"/>
<text text-anchor="middle" x="1239" y="-99.8" font-family="Times,serif" font-size="14.00">PlayerItemComponent</text>
</g>
<!-- PlayerItemComponent&#45;&gt;SharedModule -->
<g id="edge12" class="edge">
<title>PlayerItemComponent&#45;&gt;SharedModule</title>
<path fill="none" stroke="black" d="M1259.96,-122.12C1259.96,-136.78 1259.96,-155 1259.96,-155 1259.96,-155 1501.63,-155 1501.63,-155"/>
<polygon fill="black" stroke="black" points="1501.63,-158.5 1511.63,-155 1501.63,-151.5 1501.63,-158.5"/>
</g>
<!-- PlayerSearcherComponent -->
<g id="node13" class="node">
<title>PlayerSearcherComponent</title>
<polygon fill="#ffffb3" stroke="black" points="1150.06,-122 983.94,-122 983.94,-86 1150.06,-86 1150.06,-122"/>
<text text-anchor="middle" x="1067" y="-99.8" font-family="Times,serif" font-size="14.00">PlayerSearcherComponent</text>
</g>
<!-- PlayerSearcherComponent&#45;&gt;SharedModule -->
<g id="edge13" class="edge">
<title>PlayerSearcherComponent&#45;&gt;SharedModule</title>
<path fill="none" stroke="black" d="M1145.9,-122.24C1145.9,-137.57 1145.9,-157 1145.9,-157 1145.9,-157 1501.75,-157 1501.75,-157"/>
<polygon fill="black" stroke="black" points="1501.75,-160.5 1511.75,-157 1501.75,-153.5 1501.75,-160.5"/>
</g>
<!-- RegisterFormComponent -->
<g id="node14" class="node">
<title>RegisterFormComponent</title>
<polygon fill="#ffffb3" stroke="black" points="966.32,-122 807.68,-122 807.68,-86 966.32,-86 966.32,-122"/>
<text text-anchor="middle" x="887" y="-99.8" font-family="Times,serif" font-size="14.00">RegisterFormComponent</text>
</g>
<!-- RegisterFormComponent&#45;&gt;SharedModule -->
<g id="edge14" class="edge">
<title>RegisterFormComponent&#45;&gt;SharedModule</title>
<path fill="none" stroke="black" d="M960.03,-122.01C960.03,-138.05 960.03,-159 960.03,-159 960.03,-159 1501.57,-159 1501.57,-159"/>
<polygon fill="black" stroke="black" points="1501.57,-162.5 1511.57,-159 1501.57,-155.5 1501.57,-162.5"/>
</g>
<!-- SquadComponent -->
<g id="node15" class="node">
<title>SquadComponent</title>
<polygon fill="#ffffb3" stroke="black" points="790.33,-122 673.67,-122 673.67,-86 790.33,-86 790.33,-122"/>
<text text-anchor="middle" x="732" y="-99.8" font-family="Times,serif" font-size="14.00">SquadComponent</text>
</g>
<!-- SquadComponent&#45;&gt;SharedModule -->
<g id="edge15" class="edge">
<title>SquadComponent&#45;&gt;SharedModule</title>
<path fill="none" stroke="black" d="M782.04,-122.04C782.04,-138.73 782.04,-161 782.04,-161 782.04,-161 1501.68,-161 1501.68,-161"/>
<polygon fill="black" stroke="black" points="1501.68,-164.5 1511.68,-161 1501.68,-157.5 1501.68,-164.5"/>
</g>
<!-- SquadFormComponent -->
<g id="node16" class="node">
<title>SquadFormComponent</title>
<polygon fill="#ffffb3" stroke="black" points="656.16,-122 509.84,-122 509.84,-86 656.16,-86 656.16,-122"/>
<text text-anchor="middle" x="583" y="-99.8" font-family="Times,serif" font-size="14.00">SquadFormComponent</text>
</g>
<!-- SquadFormComponent&#45;&gt;SharedModule -->
<g id="edge16" class="edge">
<title>SquadFormComponent&#45;&gt;SharedModule</title>
<path fill="none" stroke="black" d="M645.08,-122.02C645.08,-139.37 645.08,-163 645.08,-163 645.08,-163 1501.76,-163 1501.76,-163"/>
<polygon fill="black" stroke="black" points="1501.76,-166.5 1511.76,-163 1501.76,-159.5 1501.76,-166.5"/>
</g>
<!-- TrainingComponent -->
<g id="node17" class="node">
<title>TrainingComponent</title>
<polygon fill="#ffffb3" stroke="black" points="491.54,-122 362.46,-122 362.46,-86 491.54,-86 491.54,-122"/>
<text text-anchor="middle" x="427" y="-99.8" font-family="Times,serif" font-size="14.00">TrainingComponent</text>
</g>
<!-- TrainingComponent&#45;&gt;SharedModule -->
<g id="edge17" class="edge">
<title>TrainingComponent&#45;&gt;SharedModule</title>
<path fill="none" stroke="black" d="M476.72,-122.3C476.72,-140.27 476.72,-165 476.72,-165 476.72,-165 1501.59,-165 1501.59,-165"/>
<polygon fill="black" stroke="black" points="1501.59,-168.5 1511.59,-165 1501.59,-161.5 1501.59,-168.5"/>
</g>
<!-- TrainingFormComponent -->
<g id="node18" class="node">
<title>TrainingFormComponent</title>
<polygon fill="#ffffb3" stroke="black" points="343.88,-122 184.12,-122 184.12,-86 343.88,-86 343.88,-122"/>
<text text-anchor="middle" x="264" y="-99.8" font-family="Times,serif" font-size="14.00">TrainingFormComponent</text>
</g>
<!-- TrainingFormComponent&#45;&gt;SharedModule -->
<g id="edge18" class="edge">
<title>TrainingFormComponent&#45;&gt;SharedModule</title>
<path fill="none" stroke="black" d="M339.21,-122.22C339.21,-140.83 339.21,-167 339.21,-167 339.21,-167 1501.59,-167 1501.59,-167"/>
<polygon fill="black" stroke="black" points="1501.59,-170.5 1511.59,-167 1501.59,-163.5 1501.59,-170.5"/>
</g>
<!-- UserComponent -->
<g id="node19" class="node">
<title>UserComponent</title>
<polygon fill="#ffffb3" stroke="black" points="165.76,-122 58.24,-122 58.24,-86 165.76,-86 165.76,-122"/>
<text text-anchor="middle" x="112" y="-99.8" font-family="Times,serif" font-size="14.00">UserComponent</text>
</g>
<!-- UserComponent&#45;&gt;SharedModule -->
<g id="edge19" class="edge">
<title>UserComponent&#45;&gt;SharedModule</title>
<path fill="none" stroke="black" d="M159.6,-122.11C159.6,-141.34 159.6,-169 159.6,-169 159.6,-169 1501.53,-169 1501.53,-169"/>
<polygon fill="black" stroke="black" points="1501.53,-172.5 1511.53,-169 1501.53,-165.5 1501.53,-172.5"/>
</g>
<!-- HeaderComponent  -->
<g id="node21" class="node">
<title>HeaderComponent </title>
<polygon fill="#fb8072" stroke="black" points="3066.74,-252 2941.26,-252 2941.26,-216 3066.74,-216 3066.74,-252"/>
<text text-anchor="middle" x="3004" y="-229.8" font-family="Times,serif" font-size="14.00">HeaderComponent </text>
</g>
<!-- SharedModule&#45;&gt;HeaderComponent  -->
<g id="edge20" class="edge">
<title>SharedModule&#45;&gt;HeaderComponent </title>
<path fill="none" stroke="black" stroke-dasharray="5,2" d="M1610.49,-170C1861.99,-170 2986.62,-170 2986.62,-170 2986.62,-170 2986.62,-205.83 2986.62,-205.83"/>
<polygon fill="black" stroke="black" points="2983.13,-205.83 2986.62,-215.83 2990.13,-205.83 2983.13,-205.83"/>
</g>
<!-- HighlightDirective  -->
<g id="node22" class="node">
<title>HighlightDirective </title>
<polygon fill="#fb8072" stroke="black" points="2923.75,-252 2798.25,-252 2798.25,-216 2923.75,-216 2923.75,-252"/>
<text text-anchor="middle" x="2861" y="-229.8" font-family="Times,serif" font-size="14.00">HighlightDirective </text>
</g>
<!-- SharedModule&#45;&gt;HighlightDirective  -->
<g id="edge21" class="edge">
<title>SharedModule&#45;&gt;HighlightDirective </title>
<path fill="none" stroke="black" stroke-dasharray="5,2" d="M1610.55,-172C1846.54,-172 2845.12,-172 2845.12,-172 2845.12,-172 2845.12,-205.73 2845.12,-205.73"/>
<polygon fill="black" stroke="black" points="2841.63,-205.73 2845.12,-215.73 2848.63,-205.73 2841.63,-205.73"/>
</g>
<!-- LoginFormComponent  -->
<g id="node23" class="node">
<title>LoginFormComponent </title>
<polygon fill="#fb8072" stroke="black" points="2780.11,-252 2631.89,-252 2631.89,-216 2780.11,-216 2780.11,-252"/>
<text text-anchor="middle" x="2706" y="-229.8" font-family="Times,serif" font-size="14.00">LoginFormComponent </text>
</g>
<!-- SharedModule&#45;&gt;LoginFormComponent  -->
<g id="edge22" class="edge">
<title>SharedModule&#45;&gt;LoginFormComponent </title>
<path fill="none" stroke="black" stroke-dasharray="5,2" d="M1610.33,-174C1828.04,-174 2692.12,-174 2692.12,-174 2692.12,-174 2692.12,-206 2692.12,-206"/>
<polygon fill="black" stroke="black" points="2688.63,-206 2692.12,-216 2695.63,-206 2688.63,-206"/>
</g>
<!-- MatchComponent  -->
<g id="node24" class="node">
<title>MatchComponent </title>
<polygon fill="#fb8072" stroke="black" points="2613.1,-252 2492.9,-252 2492.9,-216 2613.1,-216 2613.1,-252"/>
<text text-anchor="middle" x="2553" y="-229.8" font-family="Times,serif" font-size="14.00">MatchComponent </text>
</g>
<!-- SharedModule&#45;&gt;MatchComponent  -->
<g id="edge23" class="edge">
<title>SharedModule&#45;&gt;MatchComponent </title>
<path fill="none" stroke="black" stroke-dasharray="5,2" d="M1610.28,-176C1809.03,-176 2541.12,-176 2541.12,-176 2541.12,-176 2541.12,-205.97 2541.12,-205.97"/>
<polygon fill="black" stroke="black" points="2537.63,-205.97 2541.12,-215.97 2544.63,-205.97 2537.63,-205.97"/>
</g>
<!-- MatchFormComponent  -->
<g id="node25" class="node">
<title>MatchFormComponent </title>
<polygon fill="#fb8072" stroke="black" points="2474.43,-252 2323.57,-252 2323.57,-216 2474.43,-216 2474.43,-252"/>
<text text-anchor="middle" x="2399" y="-229.8" font-family="Times,serif" font-size="14.00">MatchFormComponent </text>
</g>
<!-- SharedModule&#45;&gt;MatchFormComponent  -->
<g id="edge24" class="edge">
<title>SharedModule&#45;&gt;MatchFormComponent </title>
<path fill="none" stroke="black" stroke-dasharray="5,2" d="M1610.32,-178C1788.6,-178 2389.12,-178 2389.12,-178 2389.12,-178 2389.12,-205.97 2389.12,-205.97"/>
<polygon fill="black" stroke="black" points="2385.63,-205.97 2389.12,-215.97 2392.63,-205.97 2385.63,-205.97"/>
</g>
<!-- MatchItemComponent  -->
<g id="node26" class="node">
<title>MatchItemComponent </title>
<polygon fill="#fb8072" stroke="black" points="2305.25,-252 2158.75,-252 2158.75,-216 2305.25,-216 2305.25,-252"/>
<text text-anchor="middle" x="2232" y="-229.8" font-family="Times,serif" font-size="14.00">MatchItemComponent </text>
</g>
<!-- SharedModule&#45;&gt;MatchItemComponent  -->
<g id="edge25" class="edge">
<title>SharedModule&#45;&gt;MatchItemComponent </title>
<path fill="none" stroke="black" stroke-dasharray="5,2" d="M1610.3,-180C1763.98,-180 2224.12,-180 2224.12,-180 2224.12,-180 2224.12,-205.72 2224.12,-205.72"/>
<polygon fill="black" stroke="black" points="2220.63,-205.72 2224.12,-215.72 2227.63,-205.72 2220.63,-205.72"/>
</g>
<!-- PictureSelectableComponent  -->
<g id="node27" class="node">
<title>PictureSelectableComponent </title>
<polygon fill="#fb8072" stroke="black" points="2141.01,-252 1958.99,-252 1958.99,-216 2141.01,-216 2141.01,-252"/>
<text text-anchor="middle" x="2050" y="-229.8" font-family="Times,serif" font-size="14.00">PictureSelectableComponent </text>
</g>
<!-- SharedModule&#45;&gt;PictureSelectableComponent  -->
<g id="edge26" class="edge">
<title>SharedModule&#45;&gt;PictureSelectableComponent </title>
<path fill="none" stroke="black" stroke-dasharray="5,2" d="M1610.38,-182C1733.39,-182 2043.62,-182 2043.62,-182 2043.62,-182 2043.62,-205.81 2043.62,-205.81"/>
<polygon fill="black" stroke="black" points="2040.13,-205.81 2043.62,-215.81 2047.13,-205.81 2040.13,-205.81"/>
</g>
<!-- PlayerCardComponent  -->
<g id="node28" class="node">
<title>PlayerCardComponent </title>
<polygon fill="#fb8072" stroke="black" points="1940.81,-252 1793.19,-252 1793.19,-216 1940.81,-216 1940.81,-252"/>
<text text-anchor="middle" x="1867" y="-229.8" font-family="Times,serif" font-size="14.00">PlayerCardComponent </text>
</g>
<!-- SharedModule&#45;&gt;PlayerCardComponent  -->
<g id="edge27" class="edge">
<title>SharedModule&#45;&gt;PlayerCardComponent </title>
<path fill="none" stroke="black" stroke-dasharray="5,2" d="M1610.46,-184C1690.48,-184 1839.45,-184 1839.45,-184 1839.45,-184 1839.45,-205.95 1839.45,-205.95"/>
<polygon fill="black" stroke="black" points="1835.95,-205.95 1839.45,-215.95 1842.95,-205.95 1835.95,-205.95"/>
</g>
<!-- PlayerComponent  -->
<g id="node29" class="node">
<title>PlayerComponent </title>
<polygon fill="#fb8072" stroke="black" points="1775.1,-252 1654.9,-252 1654.9,-216 1775.1,-216 1775.1,-252"/>
<text text-anchor="middle" x="1715" y="-229.8" font-family="Times,serif" font-size="14.00">PlayerComponent </text>
</g>
<!-- SharedModule&#45;&gt;PlayerComponent  -->
<g id="edge28" class="edge">
<title>SharedModule&#45;&gt;PlayerComponent </title>
<path fill="none" stroke="black" stroke-dasharray="5,2" d="M1610.52,-186C1647.97,-186 1692.98,-186 1692.98,-186 1692.98,-186 1692.98,-205.85 1692.98,-205.85"/>
<polygon fill="black" stroke="black" points="1689.48,-205.85 1692.98,-215.85 1696.48,-205.85 1689.48,-205.85"/>
</g>
<!-- PlayerFormComponent  -->
<g id="node30" class="node">
<title>PlayerFormComponent </title>
<polygon fill="#fb8072" stroke="black" points="1636.43,-252 1485.57,-252 1485.57,-216 1636.43,-216 1636.43,-252"/>
<text text-anchor="middle" x="1561" y="-229.8" font-family="Times,serif" font-size="14.00">PlayerFormComponent </text>
</g>
<!-- SharedModule&#45;&gt;PlayerFormComponent  -->
<g id="edge29" class="edge">
<title>SharedModule&#45;&gt;PlayerFormComponent </title>
<path fill="none" stroke="black" stroke-dasharray="5,2" d="M1561,-187.11C1561,-187.11 1561,-205.99 1561,-205.99"/>
<polygon fill="black" stroke="black" points="1557.5,-205.99 1561,-215.99 1564.5,-205.99 1557.5,-205.99"/>
</g>
<!-- PlayerInfoComponent  -->
<g id="node31" class="node">
<title>PlayerInfoComponent </title>
<polygon fill="#fb8072" stroke="black" points="1467.92,-252 1324.08,-252 1324.08,-216 1467.92,-216 1467.92,-252"/>
<text text-anchor="middle" x="1396" y="-229.8" font-family="Times,serif" font-size="14.00">PlayerInfoComponent </text>
</g>
<!-- SharedModule&#45;&gt;PlayerInfoComponent  -->
<g id="edge30" class="edge">
<title>SharedModule&#45;&gt;PlayerInfoComponent </title>
<path fill="none" stroke="black" stroke-dasharray="5,2" d="M1511.69,-186C1456.64,-186 1375.18,-186 1375.18,-186 1375.18,-186 1375.18,-205.85 1375.18,-205.85"/>
<polygon fill="black" stroke="black" points="1371.68,-205.85 1375.18,-215.85 1378.68,-205.85 1371.68,-205.85"/>
</g>
<!-- PlayerItemComponent  -->
<g id="node32" class="node">
<title>PlayerItemComponent </title>
<polygon fill="#fb8072" stroke="black" points="1306.25,-252 1159.75,-252 1159.75,-216 1306.25,-216 1306.25,-252"/>
<text text-anchor="middle" x="1233" y="-229.8" font-family="Times,serif" font-size="14.00">PlayerItemComponent </text>
</g>
<!-- SharedModule&#45;&gt;PlayerItemComponent  -->
<g id="edge31" class="edge">
<title>SharedModule&#45;&gt;PlayerItemComponent </title>
<path fill="none" stroke="black" stroke-dasharray="5,2" d="M1511.62,-184C1415.76,-184 1213.79,-184 1213.79,-184 1213.79,-184 1213.79,-205.95 1213.79,-205.95"/>
<polygon fill="black" stroke="black" points="1210.29,-205.95 1213.79,-215.95 1217.29,-205.95 1210.29,-205.95"/>
</g>
<!-- PlayerSearcherComponent  -->
<g id="node33" class="node">
<title>PlayerSearcherComponent </title>
<polygon fill="#fb8072" stroke="black" points="1141.56,-252 972.44,-252 972.44,-216 1141.56,-216 1141.56,-252"/>
<text text-anchor="middle" x="1057" y="-229.8" font-family="Times,serif" font-size="14.00">PlayerSearcherComponent </text>
</g>
<!-- SharedModule&#45;&gt;PlayerSearcherComponent  -->
<g id="edge32" class="edge">
<title>SharedModule&#45;&gt;PlayerSearcherComponent </title>
<path fill="none" stroke="black" stroke-dasharray="5,2" d="M1511.42,-182C1385.42,-182 1062.88,-182 1062.88,-182 1062.88,-182 1062.88,-205.81 1062.88,-205.81"/>
<polygon fill="black" stroke="black" points="1059.38,-205.81 1062.88,-215.81 1066.38,-205.81 1059.38,-205.81"/>
</g>
<!-- RegisterFormComponent  -->
<g id="node34" class="node">
<title>RegisterFormComponent </title>
<polygon fill="#fb8072" stroke="black" points="953.82,-252 792.18,-252 792.18,-216 953.82,-216 953.82,-252"/>
<text text-anchor="middle" x="873" y="-229.8" font-family="Times,serif" font-size="14.00">RegisterFormComponent </text>
</g>
<!-- SharedModule&#45;&gt;RegisterFormComponent  -->
<g id="edge33" class="edge">
<title>SharedModule&#45;&gt;RegisterFormComponent </title>
<path fill="none" stroke="black" stroke-dasharray="5,2" d="M1511.54,-180C1355.03,-180 880.88,-180 880.88,-180 880.88,-180 880.88,-205.72 880.88,-205.72"/>
<polygon fill="black" stroke="black" points="877.38,-205.72 880.88,-215.72 884.38,-205.72 877.38,-205.72"/>
</g>
<!-- SquadComponent  -->
<g id="node35" class="node">
<title>SquadComponent </title>
<polygon fill="#fb8072" stroke="black" points="773.83,-252 654.17,-252 654.17,-216 773.83,-216 773.83,-252"/>
<text text-anchor="middle" x="714" y="-229.8" font-family="Times,serif" font-size="14.00">SquadComponent </text>
</g>
<!-- SharedModule&#45;&gt;SquadComponent  -->
<g id="edge34" class="edge">
<title>SharedModule&#45;&gt;SquadComponent </title>
<path fill="none" stroke="black" stroke-dasharray="5,2" d="M1511.76,-178C1332.32,-178 723.88,-178 723.88,-178 723.88,-178 723.88,-205.97 723.88,-205.97"/>
<polygon fill="black" stroke="black" points="720.38,-205.97 723.88,-215.97 727.38,-205.97 720.38,-205.97"/>
</g>
<!-- SquadFormComponent  -->
<g id="node36" class="node">
<title>SquadFormComponent </title>
<polygon fill="#fb8072" stroke="black" points="636.16,-252 485.84,-252 485.84,-216 636.16,-216 636.16,-252"/>
<text text-anchor="middle" x="561" y="-229.8" font-family="Times,serif" font-size="14.00">SquadFormComponent </text>
</g>
<!-- SharedModule&#45;&gt;SquadFormComponent  -->
<g id="edge35" class="edge">
<title>SharedModule&#45;&gt;SquadFormComponent </title>
<path fill="none" stroke="black" stroke-dasharray="5,2" d="M1511.66,-176C1311.78,-176 572.88,-176 572.88,-176 572.88,-176 572.88,-205.97 572.88,-205.97"/>
<polygon fill="black" stroke="black" points="569.38,-205.97 572.88,-215.97 576.38,-205.97 569.38,-205.97"/>
</g>
<!-- TrainingComponent  -->
<g id="node37" class="node">
<title>TrainingComponent </title>
<polygon fill="#fb8072" stroke="black" points="467.54,-252 334.46,-252 334.46,-216 467.54,-216 467.54,-252"/>
<text text-anchor="middle" x="401" y="-229.8" font-family="Times,serif" font-size="14.00">TrainingComponent </text>
</g>
<!-- SharedModule&#45;&gt;TrainingComponent  -->
<g id="edge36" class="edge">
<title>SharedModule&#45;&gt;TrainingComponent </title>
<path fill="none" stroke="black" stroke-dasharray="5,2" d="M1511.75,-174C1292.38,-174 414.88,-174 414.88,-174 414.88,-174 414.88,-206 414.88,-206"/>
<polygon fill="black" stroke="black" points="411.38,-206 414.88,-216 418.38,-206 411.38,-206"/>
</g>
<!-- TrainingFormComponent  -->
<g id="node38" class="node">
<title>TrainingFormComponent </title>
<polygon fill="#fb8072" stroke="black" points="316.88,-252 153.12,-252 153.12,-216 316.88,-216 316.88,-252"/>
<text text-anchor="middle" x="235" y="-229.8" font-family="Times,serif" font-size="14.00">TrainingFormComponent </text>
</g>
<!-- SharedModule&#45;&gt;TrainingFormComponent  -->
<g id="edge37" class="edge">
<title>SharedModule&#45;&gt;TrainingFormComponent </title>
<path fill="none" stroke="black" stroke-dasharray="5,2" d="M1511.62,-172C1272.95,-172 250.38,-172 250.38,-172 250.38,-172 250.38,-205.73 250.38,-205.73"/>
<polygon fill="black" stroke="black" points="246.88,-205.73 250.38,-215.73 253.88,-205.73 246.88,-205.73"/>
</g>
<!-- UserComponent  -->
<g id="node39" class="node">
<title>UserComponent </title>
<polygon fill="#fb8072" stroke="black" points="135.76,-252 24.24,-252 24.24,-216 135.76,-216 135.76,-252"/>
<text text-anchor="middle" x="80" y="-229.8" font-family="Times,serif" font-size="14.00">UserComponent </text>
</g>
<!-- SharedModule&#45;&gt;UserComponent  -->
<g id="edge38" class="edge">
<title>SharedModule&#45;&gt;UserComponent </title>
<path fill="none" stroke="black" stroke-dasharray="5,2" d="M1511.45,-170C1255.69,-170 96.88,-170 96.88,-170 96.88,-170 96.88,-205.83 96.88,-205.83"/>
<polygon fill="black" stroke="black" points="93.38,-205.83 96.88,-215.83 100.38,-205.83 93.38,-205.83"/>
</g>
</g>
</svg>
