<?xml version="1.0" encoding="UTF-8" standalone="no"?>
<!DOCTYPE svg PUBLIC "-//W3C//DTD SVG 1.1//EN"
 "http://www.w3.org/Graphics/SVG/1.1/DTD/svg11.dtd">
<!-- Generated by graphviz version 2.47.0 (20210316.0004)
 -->
<!-- Title: dependencies Pages: 1 -->
<svg width="504pt" height="211pt"
 viewBox="0.00 0.00 504.00 211.00" xmlns="http://www.w3.org/2000/svg" xmlns:xlink="http://www.w3.org/1999/xlink">
<g id="graph0" class="graph" transform="scale(1 1) rotate(0) translate(4 207)">
<title>dependencies</title>
<polygon fill="white" stroke="transparent" points="-4,4 -4,-207 500,-207 500,4 -4,4"/>
<text text-anchor="start" x="227.01" y="-42.4" font-family="Times-12" font-weight="bold" font-size="14.00">Legend</text>
<polygon fill="#ffffb3" stroke="transparent" points="14,-10 14,-30 34,-30 34,-10 14,-10"/>
<text text-anchor="start" x="37.63" y="-15.4" font-family="Times-12" font-size="14.00"> &#160;Declarations</text>
<polygon fill="#8dd3c7" stroke="transparent" points="127,-10 127,-30 147,-30 147,-10 127,-10"/>
<text text-anchor="start" x="150.73" y="-15.4" font-family="Times-12" font-size="14.00"> &#160;Module</text>
<polygon fill="#80b1d3" stroke="transparent" points="213,-10 213,-30 233,-30 233,-10 213,-10"/>
<text text-anchor="start" x="236.78" y="-15.4" font-family="Times-12" font-size="14.00"> &#160;Bootstrap</text>
<polygon fill="#fdb462" stroke="transparent" points="310,-10 310,-30 330,-30 330,-10 310,-10"/>
<text text-anchor="start" x="333.67" y="-15.4" font-family="Times-12" font-size="14.00"> &#160;Providers</text>
<polygon fill="#fb8072" stroke="transparent" points="406,-10 406,-30 426,-30 426,-10 406,-10"/>
<text text-anchor="start" x="429.73" y="-15.4" font-family="Times-12" font-size="14.00"> &#160;Exports</text>
<g id="clust1" class="cluster">
<title>cluster_MyplayersPageModule</title>
<polygon fill="none" stroke="black" stroke-dasharray="1,5" points="14,-70 14,-195 482,-195 482,-70 14,-70"/>
</g>
<g id="clust2" class="cluster">
<title>cluster_MyplayersPageModule_declarations</title>
<polygon fill="none" stroke="black" points="354,-78 354,-130 474,-130 474,-78 354,-78"/>
</g>
<g id="clust4" class="cluster">
<title>cluster_MyplayersPageModule_imports</title>
<polygon fill="none" stroke="black" points="22,-78 22,-130 346,-130 346,-78 22,-78"/>
</g>
<!-- MyplayersPage -->
<g id="node1" class="node">
<title>MyplayersPage</title>
<polygon fill="#ffffb3" stroke="black" points="465.58,-122 362.42,-122 362.42,-86 465.58,-86 465.58,-122"/>
<text text-anchor="middle" x="414" y="-99.8" font-family="Times,serif" font-size="14.00">MyplayersPage</text>
</g>
<!-- MyplayersPageModule -->
<g id="node2" class="node">
<title>MyplayersPageModule</title>
<polygon fill="#8dd3c7" stroke="black" points="315.13,-187 312.13,-191 291.13,-191 288.13,-187 168.87,-187 168.87,-151 315.13,-151 315.13,-187"/>
<text text-anchor="middle" x="242" y="-164.8" font-family="Times,serif" font-size="14.00">MyplayersPageModule</text>
</g>
<!-- MyplayersPage&#45;&gt;MyplayersPageModule -->
<g id="edge1" class="edge">
<title>MyplayersPage&#45;&gt;MyplayersPageModule</title>
<path fill="none" stroke="black" d="M414,-122.11C414,-141.34 414,-169 414,-169 414,-169 325.44,-169 325.44,-169"/>
<polygon fill="black" stroke="black" points="325.44,-165.5 315.44,-169 325.44,-172.5 325.44,-165.5"/>
</g>
<!-- MyplayersPageRoutingModule -->
<g id="node3" class="node">
<title>MyplayersPageRoutingModule</title>
<polygon fill="#8dd3c7" stroke="black" points="337.75,-122 334.75,-126 313.75,-126 310.75,-122 146.25,-122 146.25,-86 337.75,-86 337.75,-122"/>
<text text-anchor="middle" x="242" y="-99.8" font-family="Times,serif" font-size="14.00">MyplayersPageRoutingModule</text>
</g>
<!-- MyplayersPageRoutingModule&#45;&gt;MyplayersPageModule -->
<g id="edge2" class="edge">
<title>MyplayersPageRoutingModule&#45;&gt;MyplayersPageModule</title>
<path fill="none" stroke="black" d="M242,-122.11C242,-122.11 242,-140.99 242,-140.99"/>
<polygon fill="black" stroke="black" points="238.5,-140.99 242,-150.99 245.5,-140.99 238.5,-140.99"/>
</g>
<!-- SharedModule -->
<g id="node4" class="node">
<title>SharedModule</title>
<polygon fill="#8dd3c7" stroke="black" points="128.42,-122 125.42,-126 104.42,-126 101.42,-122 29.58,-122 29.58,-86 128.42,-86 128.42,-122"/>
<text text-anchor="middle" x="79" y="-99.8" font-family="Times,serif" font-size="14.00">SharedModule</text>
</g>
<!-- SharedModule&#45;&gt;MyplayersPageModule -->
<g id="edge3" class="edge">
<title>SharedModule&#45;&gt;MyplayersPageModule</title>
<path fill="none" stroke="black" d="M79,-122.11C79,-141.34 79,-169 79,-169 79,-169 158.61,-169 158.61,-169"/>
<polygon fill="black" stroke="black" points="158.61,-172.5 168.61,-169 158.61,-165.5 158.61,-172.5"/>
</g>
</g>
</svg>
