<?xml version="1.0" encoding="UTF-8" standalone="no"?>
<!DOCTYPE svg PUBLIC "-//W3C//DTD SVG 1.1//EN"
 "http://www.w3.org/Graphics/SVG/1.1/DTD/svg11.dtd">
<!-- Generated by graphviz version 2.47.0 (20210316.0004)
 -->
<!-- Title: dependencies Pages: 1 -->
<svg width="504pt" height="211pt"
 viewBox="0.00 0.00 504.00 211.00" xmlns="http://www.w3.org/2000/svg" xmlns:xlink="http://www.w3.org/1999/xlink">
<g id="graph0" class="graph" transform="scale(1 1) rotate(0) translate(4 207)">
<title>dependencies</title>
<polygon fill="white" stroke="transparent" points="-4,4 -4,-207 500,-207 500,4 -4,4"/>
<text text-anchor="start" x="227.01" y="-42.4" font-family="Times-12" font-weight="bold" font-size="14.00">Legend</text>
<polygon fill="#ffffb3" stroke="transparent" points="14,-10 14,-30 34,-30 34,-10 14,-10"/>
<text text-anchor="start" x="37.63" y="-15.4" font-family="Times-12" font-size="14.00"> &#160;Declarations</text>
<polygon fill="#8dd3c7" stroke="transparent" points="127,-10 127,-30 147,-30 147,-10 127,-10"/>
<text text-anchor="start" x="150.73" y="-15.4" font-family="Times-12" font-size="14.00"> &#160;Module</text>
<polygon fill="#80b1d3" stroke="transparent" points="213,-10 213,-30 233,-30 233,-10 213,-10"/>
<text text-anchor="start" x="236.78" y="-15.4" font-family="Times-12" font-size="14.00"> &#160;Bootstrap</text>
<polygon fill="#fdb462" stroke="transparent" points="310,-10 310,-30 330,-30 330,-10 310,-10"/>
<text text-anchor="start" x="333.67" y="-15.4" font-family="Times-12" font-size="14.00"> &#160;Providers</text>
<polygon fill="#fb8072" stroke="transparent" points="406,-10 406,-30 426,-30 426,-10 406,-10"/>
<text text-anchor="start" x="429.73" y="-15.4" font-family="Times-12" font-size="14.00"> &#160;Exports</text>
<g id="clust1" class="cluster">
<title>cluster_RegisterPageModule</title>
<polygon fill="none" stroke="black" stroke-dasharray="1,5" points="28,-70 28,-195 468,-195 468,-70 28,-70"/>
</g>
<g id="clust4" class="cluster">
<title>cluster_RegisterPageModule_imports</title>
<polygon fill="none" stroke="black" points="150,-78 150,-130 460,-130 460,-78 150,-78"/>
</g>
<g id="clust2" class="cluster">
<title>cluster_RegisterPageModule_declarations</title>
<polygon fill="none" stroke="black" points="36,-78 36,-130 142,-130 142,-78 36,-78"/>
</g>
<!-- RegisterPage -->
<g id="node1" class="node">
<title>RegisterPage</title>
<polygon fill="#ffffb3" stroke="black" points="133.86,-122 44.14,-122 44.14,-86 133.86,-86 133.86,-122"/>
<text text-anchor="middle" x="89" y="-99.8" font-family="Times,serif" font-size="14.00">RegisterPage</text>
</g>
<!-- RegisterPageModule -->
<g id="node2" class="node">
<title>RegisterPageModule</title>
<polygon fill="#8dd3c7" stroke="black" points="273.91,-187 270.91,-191 249.91,-191 246.91,-187 140.09,-187 140.09,-151 273.91,-151 273.91,-187"/>
<text text-anchor="middle" x="207" y="-164.8" font-family="Times,serif" font-size="14.00">RegisterPageModule</text>
</g>
<!-- RegisterPage&#45;&gt;RegisterPageModule -->
<g id="edge1" class="edge">
<title>RegisterPage&#45;&gt;RegisterPageModule</title>
<path fill="none" stroke="black" d="M133.89,-104C142.58,-104 149.04,-104 149.04,-104 149.04,-104 149.04,-140.89 149.04,-140.89"/>
<polygon fill="black" stroke="black" points="145.54,-140.89 149.04,-150.89 152.54,-140.89 145.54,-140.89"/>
</g>
<!-- RegisterPageRoutingModule -->
<g id="node3" class="node">
<title>RegisterPageRoutingModule</title>
<polygon fill="#8dd3c7" stroke="black" points="452.03,-122 449.03,-126 428.03,-126 425.03,-122 273.97,-122 273.97,-86 452.03,-86 452.03,-122"/>
<text text-anchor="middle" x="363" y="-99.8" font-family="Times,serif" font-size="14.00">RegisterPageRoutingModule</text>
</g>
<!-- RegisterPageRoutingModule&#45;&gt;RegisterPageModule -->
<g id="edge2" class="edge">
<title>RegisterPageRoutingModule&#45;&gt;RegisterPageModule</title>
<path fill="none" stroke="black" d="M273.66,-104C268.26,-104 264.96,-104 264.96,-104 264.96,-104 264.96,-140.89 264.96,-140.89"/>
<polygon fill="black" stroke="black" points="261.46,-140.89 264.96,-150.89 268.46,-140.89 261.46,-140.89"/>
</g>
<!-- SharedModule -->
<g id="node4" class="node">
<title>SharedModule</title>
<polygon fill="#8dd3c7" stroke="black" points="256.42,-122 253.42,-126 232.42,-126 229.42,-122 157.58,-122 157.58,-86 256.42,-86 256.42,-122"/>
<text text-anchor="middle" x="207" y="-99.8" font-family="Times,serif" font-size="14.00">SharedModule</text>
</g>
<!-- SharedModule&#45;&gt;RegisterPageModule -->
<g id="edge3" class="edge">
<title>SharedModule&#45;&gt;RegisterPageModule</title>
<path fill="none" stroke="black" d="M207,-122.11C207,-122.11 207,-140.99 207,-140.99"/>
<polygon fill="black" stroke="black" points="203.5,-140.99 207,-150.99 210.5,-140.99 203.5,-140.99"/>
</g>
</g>
</svg>
