<?xml version="1.0" encoding="UTF-8" standalone="no"?>
<!DOCTYPE svg PUBLIC "-//W3C//DTD SVG 1.1//EN"
 "http://www.w3.org/Graphics/SVG/1.1/DTD/svg11.dtd">
<!-- Generated by graphviz version 2.47.0 (20210316.0004)
 -->
<!-- Title: dependencies Pages: 1 -->
<svg width="504pt" height="211pt"
 viewBox="0.00 0.00 504.00 211.00" xmlns="http://www.w3.org/2000/svg" xmlns:xlink="http://www.w3.org/1999/xlink">
<g id="graph0" class="graph" transform="scale(1 1) rotate(0) translate(4 207)">
<title>dependencies</title>
<polygon fill="white" stroke="transparent" points="-4,4 -4,-207 500,-207 500,4 -4,4"/>
<text text-anchor="start" x="227.01" y="-42.4" font-family="Times-12" font-weight="bold" font-size="14.00">Legend</text>
<polygon fill="#ffffb3" stroke="transparent" points="14,-10 14,-30 34,-30 34,-10 14,-10"/>
<text text-anchor="start" x="37.63" y="-15.4" font-family="Times-12" font-size="14.00"> &#160;Declarations</text>
<polygon fill="#8dd3c7" stroke="transparent" points="127,-10 127,-30 147,-30 147,-10 127,-10"/>
<text text-anchor="start" x="150.73" y="-15.4" font-family="Times-12" font-size="14.00"> &#160;Module</text>
<polygon fill="#80b1d3" stroke="transparent" points="213,-10 213,-30 233,-30 233,-10 213,-10"/>
<text text-anchor="start" x="236.78" y="-15.4" font-family="Times-12" font-size="14.00"> &#160;Bootstrap</text>
<polygon fill="#fdb462" stroke="transparent" points="310,-10 310,-30 330,-30 330,-10 310,-10"/>
<text text-anchor="start" x="333.67" y="-15.4" font-family="Times-12" font-size="14.00"> &#160;Providers</text>
<polygon fill="#fb8072" stroke="transparent" points="406,-10 406,-30 426,-30 426,-10 406,-10"/>
<text text-anchor="start" x="429.73" y="-15.4" font-family="Times-12" font-size="14.00"> &#160;Exports</text>
<g id="clust1" class="cluster">
<title>cluster_MySquadsPageModule</title>
<polygon fill="none" stroke="black" stroke-dasharray="1,5" points="14,-70 14,-195 482,-195 482,-70 14,-70"/>
</g>
<g id="clust4" class="cluster">
<title>cluster_MySquadsPageModule_imports</title>
<polygon fill="none" stroke="black" points="150,-78 150,-130 474,-130 474,-78 150,-78"/>
</g>
<g id="clust2" class="cluster">
<title>cluster_MySquadsPageModule_declarations</title>
<polygon fill="none" stroke="black" points="22,-78 22,-130 142,-130 142,-78 22,-78"/>
</g>
<!-- MySquadsPage -->
<g id="node1" class="node">
<title>MySquadsPage</title>
<polygon fill="#ffffb3" stroke="black" points="133.6,-122 30.4,-122 30.4,-86 133.6,-86 133.6,-122"/>
<text text-anchor="middle" x="82" y="-99.8" font-family="Times,serif" font-size="14.00">MySquadsPage</text>
</g>
<!-- MySquadsPageModule -->
<g id="node2" class="node">
<title>MySquadsPageModule</title>
<polygon fill="#8dd3c7" stroke="black" points="280.15,-187 277.15,-191 256.15,-191 253.15,-187 133.85,-187 133.85,-151 280.15,-151 280.15,-187"/>
<text text-anchor="middle" x="207" y="-164.8" font-family="Times,serif" font-size="14.00">MySquadsPageModule</text>
</g>
<!-- MySquadsPage&#45;&gt;MySquadsPageModule -->
<g id="edge1" class="edge">
<title>MySquadsPage&#45;&gt;MySquadsPageModule</title>
<path fill="none" stroke="black" d="M133.74,-104C140.83,-104 145.73,-104 145.73,-104 145.73,-104 145.73,-140.89 145.73,-140.89"/>
<polygon fill="black" stroke="black" points="142.23,-140.89 145.73,-150.89 149.23,-140.89 142.23,-140.89"/>
</g>
<!-- MySquadsPageRoutingModule -->
<g id="node3" class="node">
<title>MySquadsPageRoutingModule</title>
<polygon fill="#8dd3c7" stroke="black" points="465.77,-122 462.77,-126 441.77,-126 438.77,-122 274.23,-122 274.23,-86 465.77,-86 465.77,-122"/>
<text text-anchor="middle" x="370" y="-99.8" font-family="Times,serif" font-size="14.00">MySquadsPageRoutingModule</text>
</g>
<!-- MySquadsPageRoutingModule&#45;&gt;MySquadsPageModule -->
<g id="edge2" class="edge">
<title>MySquadsPageRoutingModule&#45;&gt;MySquadsPageModule</title>
<path fill="none" stroke="black" d="M274.1,-104C268.55,-104 265.16,-104 265.16,-104 265.16,-104 265.16,-140.89 265.16,-140.89"/>
<polygon fill="black" stroke="black" points="261.66,-140.89 265.16,-150.89 268.66,-140.89 261.66,-140.89"/>
</g>
<!-- SharedModule -->
<g id="node4" class="node">
<title>SharedModule</title>
<polygon fill="#8dd3c7" stroke="black" points="256.42,-122 253.42,-126 232.42,-126 229.42,-122 157.58,-122 157.58,-86 256.42,-86 256.42,-122"/>
<text text-anchor="middle" x="207" y="-99.8" font-family="Times,serif" font-size="14.00">SharedModule</text>
</g>
<!-- SharedModule&#45;&gt;MySquadsPageModule -->
<g id="edge3" class="edge">
<title>SharedModule&#45;&gt;MySquadsPageModule</title>
<path fill="none" stroke="black" d="M207,-122.11C207,-122.11 207,-140.99 207,-140.99"/>
<polygon fill="black" stroke="black" points="203.5,-140.99 207,-150.99 210.5,-140.99 203.5,-140.99"/>
</g>
</g>
</svg>
